<?xml version="1.0" standalone="no"?>
<!DOCTYPE svg PUBLIC "-//W3C//DTD SVG 20010904//EN"
 "http://www.w3.org/TR/2001/REC-SVG-20010904/DTD/svg10.dtd">
<svg version="1.0" xmlns="http://www.w3.org/2000/svg"
 width="500.000000pt" height="500.000000pt" viewBox="0 0 500.000000 500.000000"
 preserveAspectRatio="xMidYMid meet">
<metadata>
Created by potrace 1.14, written by Peter Selinger 2001-2017
</metadata>
<g transform="translate(0.000000,500.000000) scale(0.100000,-0.100000)"
fill="#000000" stroke="none">
<path d="M2436 4923 c-1 -1 -44 -4 -96 -7 -317 -19 -678 -121 -970 -274 -81
-42 -322 -196 -351 -224 -8 -7 -45 -39 -84 -70 -78 -63 -250 -237 -311 -313
-21 -27 -43 -55 -49 -62 -5 -7 -15 -18 -20 -25 -13 -16 -110 -161 -140 -208
-118 -187 -225 -451 -285 -705 -33 -137 -37 -161 -53 -345 -16 -167 -12 -411
8 -535 2 -11 7 -40 10 -65 8 -56 60 -280 79 -340 94 -294 237 -561 426 -796
425 -530 1050 -859 1731 -910 155 -12 387 -5 509 16 30 5 71 11 90 14 239 36
548 146 779 278 46 26 88 48 92 48 5 0 9 4 9 9 0 5 15 16 33 25 34 17 43 24
177 125 107 82 326 300 412 411 266 345 439 747 494 1149 3 25 8 57 11 71 9
44 12 462 3 535 -53 450 -189 815 -437 1167 -30 43 -60 83 -66 90 -7 7 -30 36
-51 63 -127 160 -398 394 -601 518 -259 157 -599 286 -850 321 -22 4 -51 8
-65 11 -56 10 -106 15 -193 21 -96 6 -237 10 -241 7z"/>
</g>
</svg>
